<svg xmlns="http://www.w3.org/2000/svg" width="308.625" height="411.66" viewBox="0 0 308.625 411.66">
  <defs>
    <style>
      .cls-1 {
        fill: #fff;
        fill-rule: evenodd;
      
      }
    </style>
  </defs>
  <path data-name="d copy" class="cls-1" d="M630.061,3795.32c32.815,0,64.8-31.15,64.8-62.72,0-33.23-4.985-44.03-23.677-73.11-11.215-17.03-18.276-27.83-18.276-34.47,0-7.48,9.969-12.05,17.446-12.05,4.569,0,8.723,1.66,11.215,5.82s6.23,6.23,8.723,6.23c2.907,0,4.984-2.08,4.984-5.4,0-2.5-3.323-35.31-39.045-35.31-11.631,0-38.63,2.91-38.63,44.03,0,9.55-53.168,11.21-58.568,11.21-5.815,0-6.646,0-6.646-2.49s2.493-13.71,2.493-19.52c0-40.71-19.523-62.31-51.922-92.63-10.8-10.38-33.23-32.4-33.23-34.06,0-6.65,39.46-24.09,63.967-24.09,57.322,0,70.614,30.74,70.614,44.03,0,16.61-9.553,29.9-20.353,29.9-2.908,0-5.4-1.24-8.308-4.15-2.077-2.08-10.384-17.44-14.122-17.44a4.7,4.7,0,0,0-4.57,4.98c0,8.72,25.754,49.01,69.783,49.01,46.107,0,68.122-46.1,68.122-64.38,0-30.32-22.846-57.32-34.892-72.69-2.492-3.32-10.384-17.45-10.384-25.75,0-9.14,6.231-12.46,10.384-12.46,3.323,0,3.739.83,4.154,3.73,2.492,14.54,7.892,23.27,17.861,23.27s12.877-8.73,12.877-14.96c0-12.04-8.723-25.75-34.892-25.75-30.737,0-41.537,25.34-41.537,49.43,0,29.9,9.969,44.44,16.2,57.32,2.907,5.4,11.63,34.89,14.953,34.89,2.077,0,4.154-2.08,4.154-4.98,0-3.74-4.154-20.36-4.154-24.1,0-7.89,4.154-11.63,7.892-11.63,8.308,0,18.692,2.91,18.692,24.51,0,35.72-26.584,51.92-49.43,51.92-9.553,0-31.983-4.57-31.983-12.04,0-2.49,2.492-4.57,4.984-6.23,5.815-3.74,15.784-14.13,15.784-31.16-0.415-36.55-39.045-56.49-81.829-56.49-26.168,0-51.921,12.88-71.029,23.26a4.5,4.5,0,0,1-2.907,1.25c-3.323,0-23.677-20.77-23.677-22.01,0-.42,31.153-36.97,34.892-45.28a2.514,2.514,0,0,1,2.492-1.25c1.662,0,3.738.83,6.231,2.91,3.738,2.91,17.861,14.12,34.476,14.12,19.107,0,32.814-16.61,32.814-28.24s-8.307-16.2-14.122-16.2c-9.554,0-14.954,13.29-21.184,18.27a26.249,26.249,0,0,1-15.785,5.4,17.7,17.7,0,0,1-13.292-5.81c-2.077-2.49-10.384-17.86-14.122-17.86-3.323,0-5.816,3.74-6.231,8.31-0.831,4.98.831,10.38-6.231,22.43-2.907,5.4-26.584,33.23-29.491,33.23-1.662,0-19.523-11.63-25.753-39.88-2.908-14.12-3.323-24.09-7.477-24.09-6.646,0-6.646,6.23-6.646,15.78,0,17.03.415,35.72,14.123,57.74a17.537,17.537,0,0,1,3.323,9.55c0,3.74-1.662,7.06-3.323,12.46-14.123,41.54-14.123,53.17-14.123,87.65,0,4.98,3.323,4.98,7.477,4.98,0.83,0,.83,0,0.83.42,0,0-8.307,12.46-8.307,14.95,0,1.66,11.215,2.91,11.215,4.99s-9.969,8.3-9.969,10.8c0,2.07,2.492,3.73,5.4,3.73,1.246,0,6.646-.83,7.892-0.83,0.831,0,1.246,0,1.246.42,0,2.91-11.63,13.29-11.63,14.95a3.722,3.722,0,0,0,3.738,3.74c2.492,0,12.461-6.64,14.953-6.64,0.416,0,.416,0,0.416.41,0,2.08-9.554,10.8-9.554,12.88,0,0.83,2.077,3.32,2.077,4.15s-2.077,4.99-2.077,5.82c0,1.24,1.246,1.66,3.323,1.66s10.8-4.16,12.877-4.16a0.679,0.679,0,0,1,.831.83c0,2.91-12.877,12.47-12.877,15.37,0,0.83,4.569,2.91,4.569,3.74s-3.323,3.74-3.323,4.57,1.246,1.66,2.908,1.66c1.246,0,7.476-3.32,8.723-3.32s1.661,0.41,1.661,1.25c0,2.9-12.877,12.04-12.877,15.36,0,2.08,3.323,2.5,5.816,2.5,0.83,0,6.23-.83,7.476-0.83,0.831,0,1.662.41,1.662,0.83,0,0-24.092,27.41-24.092,31.98a1.521,1.521,0,0,0,1.662,1.66c0.83,0,13.292-4.98,15.784-4.98,1.661,0,2.077.41,2.077,0.83,0,2.08-24.923,21.18-24.923,22.84s1.246,3.33,2.493,3.33,7.476-2.5,9.138-2.5a0.9,0.9,0,0,1,.831.84c0,3.32-17.446,11.63-17.446,15.36,0,3.33,2.907,6.23,5.4,7.9,4.984,4.15,26.168,27.83,31.568,32.81,2.908,2.49,7.061,3.32,10.8,3.32,3.323,0,6.23-.41,7.061-1.24s5.815-4.99,6.231-4.99c0.831,0,2.492,6.65,3.323,6.65,3.323,0,10.8-18.28,14.538-18.28a1.523,1.523,0,0,1,1.661,1.66c0,1.25-4.569,11.63-4.569,14.13a2.325,2.325,0,0,0,2.493,2.07c4.984,0,16.2-24.5,19.107-24.5,0.831,0,1.246.83,1.246,2.07,0,0.83-2.492,9.97-2.492,12.05a2.2,2.2,0,0,0,2.492,2.49c3.738,0,11.63-20.77,12.461-20.77,0.416,0,.831.83,0.831,2.5l-0.831,12.46c0,1.24.416,2.07,1.246,2.07,2.493,0,7.477-14.95,9.969-14.95,0.831,0,1.246,1.25,1.246,3.32,0,1.66-.83,11.22-0.83,13.3,0,1.66.83,2.49,2.077,2.49,2.907,0,7.892-13.29,9.969-13.29a2.032,2.032,0,0,1,1.246,2.07c0,1.66-2.493,10.39-2.493,12.46,0,1.25.416,1.66,1.247,1.66,3.323,0,9.969-18.27,12.045-18.27,0.831,0,1.247,1.24,1.247,3.74,0,2.07-.831,12.04-0.831,14.53,0,2.08,1.246,2.91,2.492,2.91,2.492,0,6.646-12.87,9.138-12.87,1.246,0,2.493.83,2.493,2.9,0,1.67-1.662,9.56-1.662,10.39,0,1.66.831,2.07,1.662,2.07,2.076,0,6.23-11.63,8.307-11.63,1.246,0,1.662,1.25,1.662,2.5,0,0.83-1.247,4.98-1.247,5.81,0,2.08,2.077,2.91,4.154,2.91h68.952ZM515,3681.92c31.983-11.63,61.89-14.54,96.367-14.54,10.384,0,11.63,0,17.03,3.33,14.538,8.72,51.506,31.57,51.506,61.47,0,29.08-30.737,53.59-51.091,53.59-1.661,0-5.4,0-5.4-2.08,0-1.66,1.247-3.32,4.57-5.4,3.738-2.08,20.768-12.46,20.768-43.62,0-10.8-14.953-36.13-34.06-36.13-16.2,0-30.738,19.52-30.738,25.75,0,2.08,1.661,2.08,2.492,2.08,2.908,0,12.461-7.48,14.954-7.48,4.153,0,9.138,2.08,10.384,4.98,1.661,5.82,18.276,27.42,18.276,32.82,0,15.78-19.938,21.6-31.153,21.6-9.553,0-21.184-2.91-35.722-7.48-26.169-8.72-38.214-28.24-61.891-28.24-37.384,0-44.86,12.46-56.906,31.98-2.908,5.4-6.231,7.89-9.138,7.89-4.57,0-29.077-25.34-29.077-31.57,0-3.73,2.493-7.89,8.308-11.21,7.892-3.74,36.553-27,36.553-67.29,0-20.77-8.723-36.14-13.708-48.19a11.482,11.482,0,0,1-1.246-5.39c0-7.48,10.385-19.94,13.292-19.94,3.323,0,8.308,14.95,9.969,17.03,6.231,7.06,11.631,8.3,19.523,8.3,2.492,0,3.738,1.67,3.738,5.4,0,2.08-4.984,11.22-4.984,12.88,0,2.49,1.246,3.32,2.492,3.32,5.4,0,19.107-12.87,19.107-31.98,0-14.95-14.122-29.08-25.338-29.08-25.753,0-28.66,1.67-41.122,13.3a8.23,8.23,0,0,1-4.984,2.49c-7.062,0-13.707-25.34-13.707-33.65,0-24.09,21.6-49.84,24.922-49.84,2.492,0,81.829,51.92,81.829,119.63,0,7.06-9.138,40.29-9.138,43.2,0,1.66.415,2.49,1.661,2.49Zm-88.891-181.93a9.923,9.923,0,0,1,2.077,5.81,12.442,12.442,0,0,1-2.907,7.9c-4.154,5.4-22.015,37.38-22.431,37.38-2.492,0-2.907-12.88-2.907-14.12,0-18.28,8.307-49.85,15.784-49.85C418.22,3487.11,424.451,3498.33,426.112,3499.99Z" transform="translate(-386.656 -3384.09)"/>
</svg>
