<?xml version="1.0" encoding="utf-8"?>
<!-- Generator: Adobe Illustrator 19.0.0, SVG Export Plug-In . SVG Version: 6.00 Build 0)  -->
<svg version="1.0" id="Layer_1" xmlns="http://www.w3.org/2000/svg" xmlns:xlink="http://www.w3.org/1999/xlink" x="0px" y="0px"
	 width="100%" height="100%" viewBox="390 -150 542 555" enable-background="new 390 -150 542 555" xml:space="preserve">
<g>
	<circle fill="#767769" cx="661.5" cy="127.7" r="264.5"/>
</g>
<g id="tim">
	<g id="Face">
		<path id="XMLID_15_" fill="#F9CFB8" d="M527.1,117.6c0,0-33.5-9.3-25.5,24.3s32,75.8,66.8,55.8c0,0,14.8,28.8,15.3,43.5
			s8.5,31.3,8.5,31.3s87.2,89.6,111.2,95.6c0,0,49.5-26.5,62.5-90l-3.5-48.8c0,0,22.8-32.8,23.5-55.5c0,0,15.5,10,18.3-39.3
			c0,0,9.8-66-17.5-47l-22.8-63.3C763.9,24.4,538.1-174.9,527.1,117.6z"/>
		<path id="XMLID_16_" fill="#DBB6A2" d="M503.1,118.6c15.3,0,21.5,10.1,32.3-3.5l7,10.5l20.5,31.5c0,0-4.5-74.3,4.5-71.8
			c4.7,99.6,24.7,175.3,141.3,183.8l-7.3-12l6.6-7.8c-6.3-4.3-7.5-9.6-3-15.7l-4.1-1.8l2-16.1l-31.8-11.3l38.4-5.1
			c0,0-16.5-0.9-19.4-6.6c0,0-24.5,11.5-26.5,5.1c0,0,23-21.8,31.4-21.1l-4.9-18.8l-5.3-0.6l8.1-1.3l-0.8,1.6l18.9-6.9
			c0,0-9.9-6.5,9.8-12.1l-15-7.8c0,0-33.3-46.3-30.6-58.8c0,0,23,8.8,41.5,0.8l-13.3-10.9c0,0,24.4,7.5,61.4,0.8
			c0,0,16.1,27.1,21.8,54.5c5.2-12.7,6-27.5,0.2-38.4l-14.7-28.6L581.9-35.2L503.1,118.6z"/>
		<path id="XMLID_8_" fill="#DBB6A2" d="M586.8,222.8c0,0-6.3,34.7,24.3,56.3c16,24.6,37.7,25.3,56.7,46
			c10.3,11.3,28.3,28.7,28.3,28.7l9.3-14.3l-1.3-32.4c3.7-17,14.7-29.5,31-37l25.7-15.3c0,0-11.3,85.3-32,93.3l38.7-50
			c0.8-9.9,1.9-55.7-7.7-60.7c9.5,5-51,38.9-60.7,38C649.4,270.8,597.1,250.1,586.8,222.8z"/>
	</g>
	<g id="Highlights">
		
			<linearGradient id="XMLID_3_" gradientUnits="userSpaceOnUse" x1="583.5427" y1="463.5581" x2="528.1898" y2="559.4323" gradientTransform="matrix(1 0 0 -1 0 500)">
			<stop  offset="0" style="stop-color:#3C3C3C"/>
			<stop  offset="1" style="stop-color:#000000"/>
		</linearGradient>
		<path id="XMLID_9_" fill="url(#XMLID_3_)" d="M609.6-94.2c0,0-90.5,20.6-105.8,67.8c-15.3,47.2-22.8,58.1-16.3,71.8
			C494,59,510.4,75.8,515,75.9c4.6,0.1,17.3-76.6,17.3-76.6l10.9,29.4c0,0,19-70.9,18-82.6c0,0,9.3,3,16.9,14
			C578.2-40,599.2-90.8,609.6-94.2z"/>
		
			<linearGradient id="XMLID_13_" gradientUnits="userSpaceOnUse" x1="602.0807" y1="585.3416" x2="710.1807" y2="585.3416" gradientTransform="matrix(1 0 0 -1 0 500)">
			<stop  offset="0" style="stop-color:#3C3C3C"/>
			<stop  offset="1" style="stop-color:#000000"/>
		</linearGradient>
		<path id="XMLID_11_" fill="url(#XMLID_13_)" d="M624.3-65.6c0,0,9-7.8,18.3-3c0,0-0.3-10.6,9.3-11.9s38.3,0.9,58.3,11.4
			c0,0-22.2-39-59.2-35.9c0,0-40,0.4-48.9,27.4C602.2-77.5,620-65.7,624.3-65.6z"/>
		
			<linearGradient id="XMLID_14_" gradientUnits="userSpaceOnUse" x1="685.8807" y1="564.3551" x2="774.3807" y2="564.3551" gradientTransform="matrix(1 0 0 -1 0 500)">
			<stop  offset="0" style="stop-color:#3C3C3C"/>
			<stop  offset="1" style="stop-color:#000000"/>
		</linearGradient>
		<path id="XMLID_12_" fill="url(#XMLID_14_)" d="M685.9-99.3l32.9,33.7c0,0,7.9-7.6,22.8,2.8s32.8,34.3,32.8,34.3
			s-23.7-52.7-49.7-61.7C724.6-90.1,697.6-104.1,685.9-99.3z"/>
		
			<linearGradient id="XMLID_17_" gradientUnits="userSpaceOnUse" x1="613.211" y1="529.5757" x2="590.0346" y2="569.7185" gradientTransform="matrix(1 0 0 -1 0 500)">
			<stop  offset="0" style="stop-color:#3C3C3C"/>
			<stop  offset="1" style="stop-color:#000000"/>
		</linearGradient>
		<path id="XMLID_10_" fill="url(#XMLID_17_)" d="M598.4-74.5c0,0-20.4,33.7-17.8,37.2c2.6,3.5,10.3,19.5,11.8,19.8
			c0,0,11.8-19.5,15.8-20.2c0,0,15.4-18.4,15.3-23.3C623.4-61,599.9-77.1,598.4-74.5z"/>
	</g>
	<g id="Shadows">
		<path id="XMLID_4_" fill="#333333" d="M533.8,7.9c13,52.7,31.5,57.2,31.5,57.2c-2.2,0.8,12,23.5,12,23.5c-4.8-0.5-13.8-10-13.8-10
			c-7.3-1.7-2.3,76.8-2.3,76.8l-25.8-47.7l-6.8,11.2c-13.5-8.5-22.8-1.7-22.8-1.7c-18.5-21.2-18-67.2-18-67.2s27,39.7,31.7,24.7
			C523.9,59.8,533.8,7.9,533.8,7.9z"/>
		<path id="XMLID_1_" fill="#333333" d="M618.4,68.2c0,0-43,30.7-73.1-35c0,0,21.6-73,17.9-84.8l5.6,5.1c0,0-0.5,53,0.4,56.4
			c0,0,2.8,39.6,49.2,57.6"/>
		<path id="XMLID_5_" fill="#333333" d="M570.5-46.1C563.5,16,589,67,656.3,73.7C586.7,67.9,608.2-7.9,570.5-46.1z"/>
		<path id="XMLID_6_" fill="#333333" d="M687.2,51c0,0,32.3,17,71,7.7c0,0-43.6-15.1-48.4-37c0,0,10.5,39.6,80.5,29.6
			c0,0-33.4-14.6-53.5-50.8c-3.6-34-41.1-101.4-73.5-105.7c-1.5-0.2-127.7,0-68.7,90.8c0,0,64,72.4,73.8,76c0,0,25.8,14,42.4,9.7
			C711,71.2,685,60,687.2,51z"/>
		<path id="XMLID_7_" fill="#333333" d="M720.4-63.2c0,0,6-10.5,27.8,7.5c64.5,54.8,44.4,104.3,38,168.3c0,0-10.8-46.9-18.1-55.9
			c0,0,23.5-1.8,26.9-4.4C750.2,29.9,735.8-21.6,720.4-63.2z"/>
	</g>
</g>
</svg>
