<?xml version="1.0" encoding="utf-8"?>
<!-- Generator: Adobe Illustrator 19.0.0, SVG Export Plug-In . SVG Version: 6.00 Build 0)  -->
<svg version="1.1" xmlns="http://www.w3.org/2000/svg" xmlns:xlink="http://www.w3.org/1999/xlink" x="0px" y="0px"
	 viewBox="0 0 1000 1000"  xml:space="preserve">
<style type="text/css">
	.st0{
		fill:none;
		stroke:#fff;
		stroke-width:20;
		//stroke-miterlimit:10;
		//animation:nbbb 5s ease infinite ;
		//stroke-dasharray: 500;
		}




	@keyframes nbbb {
		0%{
			 stroke-dashoffset: 0;
		}
	
		100%{
			 stroke-dashoffset: 1000;
		}
	}	


	.st1{fill:none;stroke:#fff;stroke-width:20;stroke-miterlimit:10;}


</style>
<g>
	<circle class="st0" cx="500" cy="500" r="476.6"/>
</g>
<g id="ewq">
	<path class="st1" d="M287,487c0,0-93.9-33.4-30.2,85.6s106,47.4,106,47.4l36.7,135.2c0,0,148.1,165.9,202.1,177.6
		C655.5,944.5,720.7,799,720.7,799l-8.8-96.9c0,0-58.4,56.6-115.4,64.5s-211.2-71.4-202.3-94.8c0,0-18.1,95.2,104.1,152.2
		c0,0,35.2,18.7,95.7,83.9l16-27.4c0,0-39.2-98,97.2-147.3c0,0-5,142.2-90.1,192.2"/>
	<path class="st1" d="M211,365c0,0,8.9,98.8,30.9,108.3s15-3.9,48.5,9.4L303,462l49.5,95l-3.4-136l36.4,8.5c0,0-95.6-102-89.1-139
		l-23.4,127L211,365z"/>
	<path class="st1" d="M296.4,267c0,0,47.8,196.5,154.7,131c0,0-91.8-12.7-89.8-164.7c0,0-9.1,156.3,157.8,169.8
		c0,0-74.5-2.5-103.1-97.8s-22-88-28.7-95.3c-6.7-7.3,137.7,227.9,229.2,188.3c0,0-47.2-25-39.9-37c0,0,8.7,30,135.3,16
		c0,0-84.7-22.7-92.7-60.7c0,0,51.3,50.7,150,51.3c0,0-88.6-67.3-106-96c-17.3-28.7-34-157.7-124.7-191.2S353.9,136,379.9,174"/>
	<path class="st1" d="M572.7,89.7c0,0,119.3,0.7,147.9,114.9c0,0,86.7,86.8,32.7,272.8c0,0-4.9-90.7-21.1-101.3"/>
	<path class="st1" d="M385.5,114.3c0,0-134.2,43.1-133.5,96.4c0,0-44.7,79.3-48,120c0,0-12.7,20,48,58"/>
	<path class="st1" d="M771.1,421.9c0,0,18.2-17.9,17.9,94.8c0,0-6.3,78-31.6,68.7c0,0-13.3,108.5-142.7,169.9
		c0,0-136-4.6-200.7-97.9s-51.2-222.1-51.2-222.1"/>
	<path class="st0" d="M553.9,409.1c0,0,26.1,80.9,63.4,136.2c0,0-25.2,15.3-46.9,11.7s15.2,7.2,15.2,7.2l4.4,21.1
		c0,0-54.3,18.4-57.1,42.2s50.5-9.5,50.5-9.5l34,13.3l-70.7,8.7l60,24l-8.7,25.3l7.3,10c0,0-0.7,18-0.7,20S606,740,606,740"/>
</g>
</svg>
