<?xml version="1.0" encoding="utf-8"?>

<svg version="1.1" xmlns="http://www.w3.org/2000/svg" xmlns:xlink="http://www.w3.org/1999/xlink" x="0px" y="0px"
	 viewBox="-51 -10 650 605" xml:space="preserve" >
<style type="text/css">

	.st0{
		font-family:'Roboto, sans-serif';
		fill:#fff;
		font-size:30px;
		text-anchor: middle;

	}
	.st2{filter:url(#Adobe_OpacityMaskFilter);}
	.st3{mask:url(#XMLID_12_);fill:url(#XMLID_13_);fill-opacity:.7;transition:500ms;}
	.st3:hover {fill-opacity:1;}
	.st4{fill:none;stroke:#fff;stroke-miterlimit:10;}

	.ew {
  		stroke-dasharray: 500;
 		animation: dash 10s infinite linear;
	}

	@keyframes dash {
	0% {  stroke-dashoffset: 0;}
	50%{  stroke-dashoffset: 1000;}
	100%{ stroke-dashoffset: 0;}
	}
	
</style>

<g id="Layer_1">
	<g class="st0">
		<text x='290' y='42'>FRONTEND</text>
		<text x='500' y='180'></text>
		<text x='500' y='430'>BACKEND</text>
		<text x='290' y='570'></text>
		<text x='60'  y='430'>GRAPHICS</text>
		<text x='60'  y='180'></text>

	</g>

	<defs>
		<filter id="Adobe_OpacityMaskFilter" filterUnits="userSpaceOnUse" x="111.6" y="131" width="355.4" height="268">
			<feFlood  style="flood-color:white;flood-opacity:1" result="back"/>
			<feBlend  in="SourceGraphic" in2="back" mode="normal"/>
		</filter>
	</defs>
	<mask maskUnits="userSpaceOnUse" x="111.6" y="131" width="355.4" height="268" id="XMLID_12_">
		<g id="XMLID_4_" class="st2"></g>
	</mask>
	<radialGradient id="XMLID_13_" cx="289.316" cy="290" r="1500" gradientUnits="userSpaceOnUse">
		<stop  offset="0" style="stop-color:#0e2636"/>
		<stop  offset="0.6582" style="stop-color:#dfdfdf"/>
	</radialGradient>
	
	<polygon id="XMLID_1_" class="st3" points="
	290,
	131 354,
	259 467,
	398.2 290,
	345 111.6,
	399 229,
	260.8 "/>



	<g id="pentagon">
	<g id="PENT">
		<polyline class="st4 ew" points="497.7,415.9 497.7,176.1 82.3,415.9 290,535.8 		"/>
		<polyline class="st4 ew" points="82.3,176.1 497.7,415.9 290,535.8 290,56.2 497.7,176.1 		"/>
		<polyline class="st4 ew" points="290,56.2 82.3,176.1 82.3,415.9 		"/>
	</g>
	<polygon class="st4" points="158.1,219.8 290,143.7 421.9,219.8 421.9,372.2 290,448.3 158.1,372.2 	"/>
	<polygon class="st4" points="229.3,261.3 289.3,226.7 349.4,261.3 349.4,330.7 289.3,365.3 229.3,330.7 	"/>
	</g>
</g>


</svg>
